<svg xmlns="http://www.w3.org/2000/svg" xmlns:xlink="http://www.w3.org/1999/xlink" width="100%" height="100%" viewBox="0 0 140 32" class="new-logo">
    <defs>
        <clipPath id="clip-Artboard_1">
            <rect width="140" height="32" />
        </clipPath>
    </defs>
    <g id="Artboard_1" data-name="Artboard – 1" clip-path="url(#clip-Artboard_1)">
        <g id="eflorist_logo_mobile" transform="translate(-26.997 -32.998)">
            <g id="Group_26" data-name="Group 26" transform="translate(62.603 35.764)">
                <path id="Path_120" data-name="Path 120" d="M169.542,75.119h3.344c2.883-.116,2.133-4.786-.75-4.786-1.615,0-2.653,1.932-2.594,4.786m2.826-5.969c3.6,0,5.912,2.653,5.912,6.746l-8.65.144c.374,2.566,1.788,4.585,5.278,4.325a4.36,4.36,0,0,0,2.826-2.133l.461.4a7.432,7.432,0,0,1-6.43,3.952c-3.98,0-6.546-2.365-6.546-6.056,0-4.5,2.764-7.383,7.148-7.383" transform="translate(-165.22 -62.603)" />
                <path id="Path_121" data-name="Path 121" d="M219.55,63.258a4.408,4.408,0,0,1,.028-.549l.26-.028c1.038-.116,1.7-1.875,1.7-4.441V52.07h-1.9V50.427h1.9c.2-4.585,1.759-6.746,6.257-6.69,2.421.028,4.729,1.5,4.874,3.058a1.727,1.727,0,0,1-1.816,1.875c-1.154,0-2.393-.778-2.048-1.875.345-1.066.289-2.133-1.528-2.076-.866.028-1.7,2.192-1.7,4.845v.866H229.7v1.643h-4.124v6.172c0,2.566.662,4.325,1.7,4.441l.26.028a4.352,4.352,0,0,1,.028.549v.317H219.55Z" transform="translate(-205.555 -43.736)" />
                <path id="Path_122" data-name="Path 122" d="M271.83,45.75h.806V59.735c0,2.566.662,4.325,1.672,4.441l.288.028a4.357,4.357,0,0,1,.028.549v.317H266.58v-.317a4.4,4.4,0,0,1,.028-.549l.26-.028c1.038-.116,1.7-1.875,1.7-4.441V53.393c0-3.6-.288-4.3-1.7-5.075l-.26-.144a1.715,1.715,0,0,1-.028-.289Z" transform="translate(-240.47 -45.231)" />
                <path id="Path_123" data-name="Path 123" d="M306.005,81.636c1.731,0,2.854-2.249,2.854-5.768s-1.126-5.768-2.854-5.768-2.854,2.249-2.854,5.768,1.126,5.768,2.854,5.768m-7.3-5.768c0-4.1,2.826-6.718,7.3-6.718,4.413,0,7.238,2.625,7.238,6.718s-2.826,6.718-7.238,6.718c-4.469,0-7.3-2.625-7.3-6.718" transform="translate(-264.323 -62.603)" />
                <path id="Path_124" data-name="Path 124" d="M375.139,54.417h.806v7.816c0,2.566.662,4.325,1.672,4.441l.289.028a4.357,4.357,0,0,1,.028.549v.317h-8.045V67.25a4.408,4.408,0,0,1,.028-.549l.26-.028c1.095-.116,1.7-2.02,1.7-4.614,0-3.6-.289-4.3-1.7-5.075l-.26-.144a1.717,1.717,0,0,1-.028-.289ZM357.9,67.247a4.408,4.408,0,0,1,.028-.549l.26-.028c1.095-.116,1.672-2.02,1.672-4.642,0-3.575-.26-4.268-1.672-5.046l-.26-.144a1.338,1.338,0,0,1-.028-.289l5.219-2.133h.806V58.6c.894-3.114,3.836-9.487,8.939-9.487a2.573,2.573,0,0,1,2.826,2.566,2.112,2.112,0,0,1-2.8,1.788,7.812,7.812,0,0,0-2.048-.289c-4.209,0-5.824,4.1-6.922,7.094v1.96c0,2.566.634,4.325,1.672,4.441l.288.028a4.348,4.348,0,0,1,.028.549v.317H357.89v-.317Z" transform="translate(-308.259 -47.726)" />
                <path id="Path_125" data-name="Path 125" d="M439.63,77.141c.088,0,.173.028.345.028.577,1.587,2.1,3.776,4.209,3.776a2.01,2.01,0,0,0,2.277-1.989c0-.806-.951-1.7-2.421-2.277-2.594-1.01-4.3-2.8-4.3-4.3,0-2.481,2.308-4.353,6.056-4.353a6.04,6.04,0,0,1,4.037,1.443l-.116,3.171h-.433c-.75-1.471-1.672-3.575-3.375-3.663s-2.769.951-2.8,1.96c-.028.981,1.558,1.643,4.008,2.625a4.381,4.381,0,0,1,2.942,3.864c0,2.738-2.393,4.469-6.172,4.469a6.815,6.815,0,0,1-4.124-1.3Z" transform="translate(-368.943 -61.772)" />
                <path id="Path_126" data-name="Path 126" d="M480.71,60.552V60.09c1.383-.289,3.431-2.22,5.162-4.93h.662v3.748h3.836v1.643h-3.836s-.028,5.68-.028,8.189c0,1.27.317,1.587,1.443,1.587a3.27,3.27,0,0,0,2.481-1.615l.289.374A5.569,5.569,0,0,1,485.96,72.2c-2.769,0-3.575-.866-3.575-4.181V60.552Z" transform="translate(-399.441 -52.217)" />
            </g>
            <path id="Path_127" data-name="Path 127" d="M27,101.864h5.685s3.614.157,5.616-2.12a7.641,7.641,0,0,0,1.847-4.634H33.577a6.808,6.808,0,0,0-4.974,2.4,6.74,6.74,0,0,0-1.6,4.359Z" transform="translate(0 -46.112)" fill="#b11116" />
            <path id="Path_128" data-name="Path 128" d="M27,68.863h5.685s3.614-.157,5.616,2.12a7.641,7.641,0,0,1,1.847,4.634H33.577a6.808,6.808,0,0,1-4.974-2.4A6.74,6.74,0,0,1,27,68.863Z" transform="translate(0 -26.625)" fill="#f15a22" />
            <path id="Path_129" data-name="Path 129" d="M114.03,68.863h-5.685s-3.614-.157-5.618,2.12a7.641,7.641,0,0,0-1.847,4.634h6.574a6.808,6.808,0,0,0,4.974-2.4,6.734,6.734,0,0,0,1.6-4.359Z" transform="translate(-54.851 -26.625)" fill="#f68b1f" />
            <path id="Path_130" data-name="Path 130" d="M114.03,101.864h-5.685s-3.614.157-5.618-2.12a7.641,7.641,0,0,1-1.847-4.634h6.574a6.808,6.808,0,0,1,4.974,2.4,6.734,6.734,0,0,1,1.6,4.359Z" transform="translate(-54.851 -46.112)" fill="#fdb913" />
            <path id="Path_131" data-name="Path 131" d="M63.243,33v5.685s-.157,3.614,2.12,5.618A7.641,7.641,0,0,0,70,46.154V39.578A6.768,6.768,0,0,0,63.243,33Z" transform="translate(-26.908 0)" fill="#00b6be" />
            <path id="Path_132" data-name="Path 132" d="M96.234,33v5.685s.157,3.614-2.12,5.618a7.641,7.641,0,0,1-4.634,1.847V39.578A6.768,6.768,0,0,1,96.234,33Z" transform="translate(-46.387 0)" fill="#96d5d2" />
            <path id="Path_133" data-name="Path 133" d="M63.273,119.3v-5.685S63.116,110,65.393,108a7.641,7.641,0,0,1,4.634-1.847v6.574a6.808,6.808,0,0,1-2.4,4.974,6.734,6.734,0,0,1-4.359,1.6Z" transform="translate(-26.93 -54.308)" fill="#b369ab" />
            <path id="Path_134" data-name="Path 134" d="M96.264,119.3v-5.685S96.421,110,94.144,108a7.641,7.641,0,0,0-4.634-1.847v6.574a6.808,6.808,0,0,0,2.4,4.974,6.734,6.734,0,0,0,4.359,1.6Z" transform="translate(-46.41 -54.308)" fill="#812990" />
        </g>
    </g>
</svg>
