<svg width="245" height="56" viewBox="0 0 245 56" fill="none" xmlns="http://www.w3.org/2000/svg">
<g clip-path="url(#clip0_4261_1495)">
<path d="M112.081 25.4958C109.861 26.8175 109.28 27.0944 106.915 27.7043C106.332 27.8547 105.301 28.0687 104.123 28.2981C103.861 28.3499 103.629 28.1257 103.682 27.8742C104.599 23.7527 105.617 19.6167 106.191 17.6137C106.239 17.4413 106.417 17.3292 106.604 17.3563C110.473 17.5916 114.497 19.8138 114.57 21.6427C114.646 23.5667 112.986 24.9572 112.081 25.4966M118.949 24.885H118.947C120.485 22.115 119.866 19.2718 117.241 17.0871C115.606 15.7135 113.551 14.7171 110.775 13.9509C107.188 12.9604 104.177 12.5357 99.6491 12.6563C97.0812 12.7795 95.897 12.8831 93.8397 13.4089C93.2017 13.6009 92.6233 13.8413 92.1178 14.1284C91.3499 14.5693 91.0475 15.3712 91.3635 16.1212C91.677 16.8467 92.4338 17.2841 93.4014 17.2926C94.7851 17.2485 95.1504 17.2102 96.6395 17.1007C98.3129 16.98 99.864 16.9444 101.294 16.9664C101.543 16.9715 101.719 17.2017 101.646 17.4294C100.881 19.8435 98.4267 28.9547 98.3885 29.1212C98.3562 29.2605 98.2373 29.3701 98.0912 29.3947C97.9238 29.4219 95.0637 29.9528 95.0637 29.9528C93.9017 30.1635 93.4039 31.1845 93.6069 32C93.8125 32.835 94.4963 33.4092 95.4366 33.2996C95.4477 33.2996 96.0856 33.2453 97.0311 33.1569C97.2715 33.1433 97.466 33.3515 97.4201 33.5783C96.6607 37.4815 95.9472 42.6291 96.5197 46.9698C96.693 48.2754 97.6257 48.7732 98.5252 48.752C99.4443 48.7273 100.082 48.1089 100.293 47.2654C100.295 47.2569 100.295 47.2459 100.298 47.2383C100.525 45.9734 100.86 43.7462 101.242 41.3261C101.699 38.4057 101.85 37.4314 102.026 36.2846C102.174 35.3052 102.388 34.1279 102.637 32.8443C102.666 32.694 102.794 32.5785 102.947 32.5572C105.847 32.141 107.783 31.5387 110.581 30.7343C112.129 30.2909 113.719 29.6071 115.057 28.7305C116.777 27.6032 118.125 26.3656 118.947 24.8825" fill="#005437"/>
<path d="M140.721 17.5593C139.434 17.9756 138.467 19.6804 138.91 20.9393C139.24 21.8695 140.232 22.239 140.929 22.267C141.748 22.3001 142.77 21.8864 143.268 20.8713C143.311 20.7839 143.855 19.6346 143.33 18.5804C142.819 17.5542 141.616 17.2722 140.721 17.5593Z" fill="#005437"/>
<path d="M83.8893 30.5508C83.8893 30.5508 81.843 40.683 77.9992 43.6255C77.6501 43.8939 76.6911 44.6024 75.3693 44.1156C74.3823 43.7512 74.3313 41.7287 74.3313 41.7287C74.2854 37.9597 75.2716 34.3665 77.1939 31.3637C77.7376 30.5262 79.005 28.7474 81.0326 28.575C81.8302 28.5036 82.8113 28.8842 83.603 29.6121C83.8655 29.85 84.0057 30.1702 83.8893 30.5508ZM88.1926 28.851C87.6736 28.4161 86.8785 28.5826 86.7086 28.1171C86.0027 26.1795 84.2486 25.2052 82.3076 24.8136C80.2698 24.4059 78.1479 24.9036 76.3309 26.2067C75.0763 27.1122 73.9924 28.2564 73.0979 29.754C71.5867 32.2828 69.7596 37.2971 69.8275 41.3864C69.8683 43.51 70.3143 45.1358 71.2274 46.5017C72.2442 48.0316 73.5957 48.7349 75.3634 48.7545C78.5148 48.7842 80.6639 46.3573 81.5023 45.2131C81.6697 44.9829 82.0078 45.0492 82.097 45.3227C82.1946 45.6268 82.3161 45.9606 82.435 46.1824C83.0322 47.2747 84.1161 48.481 86.1922 48.5905C87.8928 48.678 88.4441 48.0129 88.6335 47.5177C89.1066 46.2673 87.671 45.6268 87.5334 45.5665C87.5283 45.564 87.5198 45.5614 87.5122 45.5555C86.6152 45.1095 85.8278 43.5932 86.1174 41.7593C86.12 41.7482 86.1225 41.7346 86.1259 41.7236C86.2423 41.2581 88.5562 31.8759 88.6564 31.4682H88.6539C88.8943 30.4582 89.0786 29.596 88.1943 28.8519" fill="#005437"/>
<path d="M188.534 30.5508C188.534 30.5508 186.488 40.683 182.644 43.6255C182.295 43.8939 181.336 44.6024 180.014 44.1156C179.028 43.7512 178.976 41.7287 178.976 41.7287C178.93 37.9597 179.916 34.3665 181.838 31.3637C182.382 30.5262 183.649 28.7474 185.677 28.575C186.475 28.5036 187.456 28.8842 188.248 29.6121C188.51 29.85 188.65 30.1702 188.534 30.5508ZM192.837 28.851C192.318 28.4161 191.523 28.5826 191.353 28.1171C190.647 26.1795 188.893 25.2052 186.952 24.8136C184.914 24.4059 182.792 24.9036 180.975 26.2067C179.721 27.1122 178.637 28.2564 177.742 29.754C176.231 32.2828 174.404 37.2971 174.472 41.3864C174.513 43.51 174.959 45.1358 175.872 46.5017C176.888 48.0316 178.24 48.7349 180.008 48.7545C183.159 48.7842 185.308 46.3573 186.147 45.2131C186.314 44.9829 186.652 45.0492 186.741 45.3227C186.839 45.6268 186.961 45.9606 187.08 46.1824C187.677 47.2747 188.761 48.481 190.837 48.5905C192.537 48.678 193.089 48.0129 193.278 47.5177C193.751 46.2673 192.316 45.6268 192.178 45.5665C192.173 45.564 192.164 45.5614 192.157 45.5555C191.26 45.1095 190.472 43.5932 190.762 41.7593C190.764 41.7482 190.767 41.7346 190.77 41.7236C190.887 41.2581 193.201 31.8759 193.301 31.4682H193.298C193.539 30.4582 193.723 29.596 192.839 28.8519" fill="#005437"/>
<path d="M50.1088 30.0064C50.1062 30.0174 50.1062 30.0259 50.1062 30.0361H50.1088C49.9924 31.4131 48.6061 35.4497 48.4354 35.9202C47.7057 37.9538 47.1408 39.369 45.9346 41.1478C45.086 42.4015 44.4073 43.302 43.0745 43.9475C42.4527 44.2482 41.7205 44.3086 41.1658 44.1225C38.874 43.3563 38.8247 39.3435 38.9249 38.0354C39.1195 35.4794 40.0632 32.9854 41.4469 30.8431C43.399 27.8216 46.7237 27.791 49.329 29.5239C49.4454 29.6029 49.5719 29.6445 49.7699 29.5952C49.978 29.6173 50.1351 29.7974 50.1079 30.0055M52.8661 29.659C52.4337 28.9692 51.8926 28.8324 51.5146 28.8409C51.304 28.846 51.1307 28.677 51.1358 28.4629C51.1519 28.096 51.0381 27.7188 50.847 27.3986C50.5768 26.939 50.1631 26.5857 49.7282 26.279C47.7167 24.8587 45.0979 24.3414 42.7033 24.891C36.0776 26.4124 33.5505 35.0997 34.2801 41.0722C34.5341 43.155 35.2069 44.8599 36.3375 46.2886C37.6346 47.917 39.6648 48.831 41.6789 48.7495C44.4633 48.6374 46.3636 47.5178 48.0769 45.6133C50.5802 42.8297 53.3452 36.5132 53.1753 30.7488C53.1642 30.3767 53.0377 29.9333 52.8669 29.6598" fill="#005437"/>
<path d="M26.9849 15.0773V15.0747C27.1497 14.2644 26.8065 13.4548 25.6173 13.1312C25.0337 12.9724 20.3762 12.4576 14.7052 12.7014L14.7103 12.6988C12.0312 12.7371 5.33583 13.4922 3.40843 14.103C2.79173 14.3 2.23279 14.5549 1.74096 14.8556C0.995141 15.3211 0.684242 16.1858 0.970506 17.0013C1.25167 17.7921 1.96776 18.2763 2.89791 18.3009C2.95227 18.3035 3.00579 18.2984 3.06015 18.2984C3.1332 18.3009 3.20626 18.3069 3.27676 18.3009C3.33622 18.2984 3.41437 18.2899 3.47978 18.2848C4.04976 18.2653 4.62059 18.2135 5.18802 18.1421C5.98566 18.0682 6.89372 17.9807 7.95638 17.8796C8.20527 17.855 8.40234 18.0903 8.33183 18.3315C7.63953 20.7431 6.59131 24.5937 5.97461 27.1386C5.93978 27.2754 5.82851 27.3799 5.68835 27.4045C4.66136 27.588 3.39059 27.7604 2.43666 28.0153C1.2848 28.3627 0.771737 29.2495 0.879617 30.3827C0.973906 31.4113 1.56852 31.8692 2.55048 31.8938C2.71782 31.8938 3.63948 31.8777 4.48298 31.7953C4.72337 31.7707 4.91535 31.9839 4.86948 32.2166C4.0693 36.2566 3.16633 42.1051 3.77454 46.9554C3.93933 48.2746 4.8338 48.7783 5.69684 48.7537C6.57517 48.7291 7.18932 48.1047 7.38894 47.257C7.39149 47.2459 7.39404 47.2374 7.39404 47.2272C7.6132 45.9522 7.93429 43.702 8.29955 41.2607C8.73787 38.3106 8.88313 37.3278 9.05132 36.17C9.2382 34.8669 9.52956 33.2249 9.87613 31.4402C9.90586 31.2873 10.0333 31.1693 10.187 31.1531C13.9603 30.7454 18.1098 30.3215 18.9372 30.2527C20.394 30.1295 21.0404 29.3548 21.1696 28.3618C21.2774 27.5379 20.9045 26.7496 19.7612 26.5143C19.3696 26.4353 15.6872 26.3503 11.3193 26.7062C11.079 26.7258 10.8895 26.5092 10.9405 26.2764C11.6838 22.82 12.4568 19.5267 12.952 17.6554C12.9902 17.5101 13.1168 17.4039 13.2654 17.3929C13.9713 17.3275 14.4734 17.2808 14.6415 17.2697C18.9533 17.0429 22.5321 16.7906 24.0942 16.7821C25.6351 16.7736 26.7861 16.0567 26.9866 15.0798" fill="#005437"/>
<path d="M33.1492 12.7796C32.6166 12.5443 32.1222 12.6479 31.8028 12.7524C31.2753 12.9274 30.4887 13.3818 29.9298 14.8573C29.624 15.6618 27.3619 24.3024 26.6858 27.6416C26.0478 30.8024 24.0125 39.8507 24.8399 46.8824C25.0021 48.2534 25.8728 48.7792 26.7129 48.7546C27.5726 48.7274 28.1697 48.0759 28.3643 47.1942C28.3668 47.1831 28.3694 47.1746 28.3694 47.1644C28.5826 45.8402 28.8969 43.494 29.2502 40.9541C29.6801 37.8859 29.8202 36.8623 29.9825 35.6578C30.7444 30.0387 33.2316 18.2645 34.0479 15.3849C34.2076 14.8234 34.3614 13.313 33.1475 12.7796" fill="#005437"/>
<path d="M71.3824 28.1095C72.3448 27.5268 72.2743 26.6561 72.0985 26.2951C71.9014 25.8873 71.5064 25.6274 71.0766 25.4847C70.7682 25.3836 70.2985 25.3641 69.9307 25.4405C67.7357 25.9604 65.2001 27.9473 62.6322 29.9672C62.3561 30.1839 62.1676 29.9562 62.2185 29.6198C62.4649 27.9999 62.6373 26.8778 62.673 26.6994C62.8267 25.9001 62.5677 24.8519 61.5373 24.682C60.4806 24.5095 59.9913 25.139 59.6345 25.6894C59.1019 26.5134 58.2779 28.8698 58.2779 28.8698C56.8126 33.1179 56.2639 39.1498 55.8341 41.9249C55.8341 41.9249 55.4068 44.9031 55.6175 46.8212C55.7253 47.787 56.2579 48.7401 57.5584 48.7537C58.4427 48.7622 59.2429 48.1709 59.4374 46.9936C59.5215 46.5502 60.2835 41.6268 61.0132 38.2273C64.9707 31.4342 70.798 28.4595 71.3824 28.1061V28.1086V28.1095Z" fill="#005437"/>
<path d="M132.722 25.4847C132.414 25.3836 131.947 25.3641 131.577 25.4405C129.382 25.9604 126.846 27.9473 124.278 29.9698C124.005 30.183 123.813 29.9588 123.864 29.6198C124.111 27.9999 124.283 26.8778 124.319 26.6994C124.473 25.9001 124.214 24.8519 123.183 24.682C122.126 24.5095 121.64 25.139 121.283 25.6894C120.748 26.5134 119.923 28.8698 119.923 28.8698C118.458 33.1179 117.909 39.1523 117.479 41.9249C117.479 41.9249 117.052 44.9031 117.262 46.8212C117.37 47.787 117.903 48.7401 119.206 48.7537C120.087 48.7622 120.887 48.1709 121.082 46.9936C121.168 46.5502 121.928 41.6268 122.657 38.2273C126.615 31.4342 132.446 28.4595 133.027 28.1061V28.1086H133.029C133.989 27.5259 133.918 26.6552 133.745 26.2942C133.546 25.8865 133.151 25.6266 132.721 25.4839" fill="#005437"/>
<path d="M140.055 24.7177V24.7202C139.117 24.5036 138.605 25.139 138.268 25.6894C137.763 26.5134 136.981 28.8698 136.981 28.8698C135.595 33.1179 134.713 39.1524 134.305 41.925C134.305 41.925 133.9 44.9031 134.102 46.8237C134.203 47.7896 134.843 48.7392 136.076 48.7537C136.913 48.7622 137.406 48.4419 137.836 47.7658C138.117 47.3334 138.247 46.6105 138.339 46.1127C138.533 45.0535 141.004 27.452 141.147 26.6969C141.293 25.8976 140.974 24.9292 140.055 24.7177Z" fill="#005437"/>
<path d="M171.783 27.9762V27.9736H171.788C171.493 27.046 170.779 26.2085 170.025 25.5705C168.738 24.4841 166.835 24.4348 165.36 25.1653C163.881 25.8993 161.911 27.9626 160.919 29.0652C160.695 29.3166 160.273 29.1798 160.246 28.8485C160.228 28.6353 160.211 28.4349 160.198 28.2956C160.076 26.9679 159.592 25.5535 158.252 24.9971C157.17 24.5512 155.876 24.7126 154.854 25.2409C153.594 25.8899 152.643 26.9789 151.721 28.0382C151.637 28.1316 151.556 28.2267 151.472 28.3227C151.223 28.6132 150.743 28.4017 150.796 28.0271C150.907 27.2881 150.977 26.809 150.993 26.6943C151.123 25.7608 150.812 24.9317 149.85 24.7185C148.866 24.5053 148.334 25.1398 147.979 25.6877C147.449 26.5117 146.633 28.863 146.633 28.863C145.179 33.1026 144.255 39.1235 143.827 41.8935C143.827 41.8935 143.406 44.8632 143.617 46.7787C143.722 47.7445 144.392 48.6942 145.682 48.7087C146.56 48.7172 147.074 48.3969 147.525 47.7208C147.82 47.2909 147.955 46.5689 148.052 46.0703C148.131 45.66 148.574 42.7693 149.093 39.3426C149.098 39.3129 149.107 39.2823 149.12 39.2526C151.323 34.0795 154.313 29.3939 155.564 29.5884C156.088 29.6708 156.083 30.5653 155.985 31.2635C155.896 31.8904 154.074 42.5043 153.699 44.8802C153.585 45.5861 153.545 46.3769 153.683 47.0038C153.864 47.8329 154.467 48.4819 155.313 48.6874C156.156 48.8896 156.932 48.6271 157.537 48.0172C158.137 47.4175 158.208 46.5664 158.445 45.7619C158.448 45.7509 158.451 45.7424 158.454 45.7322L159.681 39.3605C159.686 39.3273 159.698 39.2976 159.714 39.267C163.125 32.3457 165.29 29.348 166.274 29.5893C167.079 29.7889 166.98 30.6078 166.912 31.2372C166.672 33.4763 165.33 42.0677 164.804 44.4844C164.66 45.1359 164.579 45.8256 164.579 46.4661C164.577 47.6078 165.169 48.385 166.294 48.6314C167.064 48.7987 167.745 48.6891 168.381 48.2321C169.04 47.759 169.394 46.9758 169.583 46.2011C170.438 42.72 170.919 39.301 171.522 35.7733C171.947 33.2827 172.198 31.7222 172.052 29.3828C172.022 28.8706 171.938 28.4688 171.784 27.9787" fill="#005437"/>
<path d="M237.252 18.8148C236.778 19.028 236.323 19.1181 235.929 19.1478C235.475 19.1809 235.145 19.621 235.214 20.0958C235.297 20.6717 235.308 21.4175 235.071 22.216C234.461 24.2717 232.818 25.1407 232.39 25.3029C229.825 26.2823 227.289 24.1655 226.969 23.8979C226.483 23.4851 226.109 23.0425 225.826 22.6399C225.562 22.2644 225.071 22.1693 224.736 22.4335C224.128 22.9126 223.108 23.4681 221.803 23.1929C220.363 22.8896 218.854 21.6342 218.615 19.897C218.413 18.4283 219.189 16.9741 220.54 16.2792C220.979 16.0524 221.108 15.4621 220.801 15.0424C220.386 14.475 219.948 13.6544 219.825 12.602C219.795 12.348 219.563 10.0358 221.182 8.65457C222.503 7.5265 224.597 7.39993 226.368 8.3853C226.767 8.607 227.273 8.43032 227.488 8.01069C228.57 5.88622 230.422 4.52455 232.243 4.51436C232.64 4.51181 233.903 4.56957 234.784 5.52011C235.715 6.52246 235.906 8.17718 235.335 9.85569C235.168 10.3467 235.478 10.8487 235.972 10.9099C236.451 10.9685 237.009 11.1103 237.569 11.417C237.918 11.6056 239.943 12.7837 239.888 15.0339C239.847 16.8687 238.489 18.2559 237.251 18.814L237.252 18.8148Z" fill="#F7AF1A"/>
<path d="M215.329 28.1613C214.697 26.6051 213.774 25.4295 212.583 24.6658C211.886 24.2233 211.102 23.9328 210.316 23.824C210.073 23.7901 209.833 23.7731 209.597 23.7731C209.515 23.7731 209.435 23.7756 209.356 23.7799C206.803 23.9013 204.951 25.3496 203.848 28.0849C203.362 29.2945 203.119 30.6332 203.127 32.0654C203.144 35.4097 204.024 38.7327 205.667 41.6744C207.286 44.5676 209.617 47.025 212.407 48.7792C212.413 48.7826 213.153 49.2328 213.731 49.2574L213.828 49.2599C214.308 49.2514 214.752 49.0535 215.042 48.7171C215.504 48.1811 215.587 47.1992 214.622 46.1331V45.931C214.43 41.6514 214.914 37.9419 215.355 35.188L215.473 34.46C215.549 33.9877 215.616 33.574 215.669 33.2028C215.914 31.5243 216.046 30.2119 215.496 28.5996L215.33 28.1605L215.329 28.1613ZM211.585 32.2302C211.53 33.4806 211.439 34.7284 211.343 36.0502C211.298 36.655 211.205 37.9436 211.205 37.9436C211.125 39.1252 211.068 40.215 211.033 41.2513C211.022 41.5733 211.027 41.8944 211.046 42.2155C211.052 42.3097 210.935 42.3582 210.873 42.2868L210.679 42.0643C209.269 40.3271 208.034 37.71 207.438 35.2118C206.778 32.4714 206.949 30.1839 207.898 29.094C208.386 28.5342 208.982 28.2718 209.592 28.3457C210.348 28.4272 211.066 29.0159 211.298 29.7455C211.521 30.4565 211.622 31.3391 211.585 32.231L211.585 32.2302Z" fill="#005437"/>
<path d="M243.152 11.3099C242.024 9.58555 240.271 9.05464 239.398 8.8805C239.177 8.83633 239.048 8.61293 239.113 8.38697C239.318 7.67004 239.521 6.58104 239.32 5.3434C238.982 3.2563 237.123 1.23461 234.859 0.7895C229.47 -0.268914 227.092 3.34804 226.457 4.64175C226.355 4.84052 226.119 4.93311 225.921 4.84732C223.218 3.68442 220.163 4.15672 218.035 5.90658C215.863 7.69042 215.677 10.085 215.638 10.5361C215.428 13.0428 216.467 14.9371 216.992 15.7194C217.111 15.8978 217.088 16.1331 216.938 16.2682C216.012 17.0938 213.875 20.0023 216.245 23.6635C217.628 25.8058 219.234 26.6365 220.687 26.8506C220.997 26.8965 221.31 26.9007 221.62 26.871C220.633 29.3811 219.136 33.7328 218.817 35.8021C218.466 37.2147 218.019 40.2974 217.861 43.7631C217.724 46.7226 217.752 50.9622 218.657 54.3541C218.793 54.9011 219.012 55.3207 219.305 55.6062C219.555 55.8465 219.858 55.9791 220.158 55.9791C220.74 55.9587 221.112 55.4414 221.165 54.6284L221.173 54.2233C221.195 52.961 221.229 51.1126 221.352 49.113C221.496 46.8585 221.597 45.8511 221.686 44.9626C221.707 44.7621 221.725 44.5896 221.739 44.4164C222.008 41.6599 222.764 36.3772 223.739 33.1102C224.31 31.1497 225.082 28.9462 225.83 27.1241C226.428 27.7578 227.251 28.4586 228.24 28.8757C229.536 29.4236 230.861 29.6037 232.116 29.4236C231.502 29.9434 230.993 30.482 230.571 31.0605C229.196 32.9327 225.959 38.2137 225.559 46.8084L225.553 46.9129L225.467 46.9622C225.456 46.9681 224.5 47.5627 224.888 48.938C224.993 49.372 225.269 49.7458 225.628 49.9454C226.398 50.3727 227.707 49.8163 228.133 49.6337C233.146 47.4438 237.452 43.5168 240.268 38.5721C241.285 36.7373 241.778 34.7564 241.622 33.1399C241.351 30.4625 239.57 28.3244 237.198 27.7731C236.517 27.6151 235.76 27.689 235.76 27.689C236.259 27.2439 236.712 26.7249 237.103 26.1337C237.785 25.1024 238.207 23.79 238.066 22.5354C238.041 22.3188 238.184 22.1217 238.386 22.0869C241.896 21.4948 243.177 18.4538 243.556 17.5313C243.849 16.7736 244.712 13.7096 243.15 11.3074L243.152 11.3099ZM235.86 32.259C235.877 32.259 235.893 32.259 235.919 32.259C236.912 32.259 237.448 33.0176 237.553 33.4992C237.919 35.2262 236.462 37.6709 235.561 38.9748L235.555 38.9816L235.557 38.9875L235.496 39.0691C234 41.0857 231.626 43.2059 229.447 44.4716C229.315 44.548 229.158 44.4291 229.186 44.2745C230.415 37.4059 233.277 32.259 235.859 32.259H235.86ZM237.252 18.8148C236.778 19.028 236.323 19.1181 235.929 19.1478C235.475 19.1809 235.145 19.6209 235.214 20.0958C235.297 20.6717 235.308 21.4175 235.071 22.216C234.461 24.2717 232.818 25.1407 232.39 25.3029C229.825 26.2823 227.289 24.1655 226.969 23.8979C226.483 23.4851 226.11 23.0425 225.826 22.6399C225.563 22.2644 225.072 22.1693 224.736 22.4335C224.128 22.9126 223.108 23.4681 221.803 23.1929C220.363 22.8896 218.854 21.6341 218.615 19.897C218.413 18.4283 219.189 16.9741 220.541 16.2792C220.979 16.0524 221.108 15.462 220.801 15.0424C220.386 14.475 219.948 13.6544 219.825 12.6019C219.795 12.348 219.563 10.0358 221.182 8.65455C222.503 7.52648 224.597 7.39991 226.368 8.38527C226.767 8.60698 227.273 8.4303 227.488 8.01067C228.57 5.8862 230.422 4.52453 232.243 4.51433C232.64 4.51179 233.903 4.56955 234.784 5.52008C235.715 6.52243 235.906 8.17716 235.335 9.85567C235.168 10.3467 235.478 10.8487 235.972 10.9098C236.451 10.9684 237.009 11.1103 237.569 11.417C237.918 11.6055 239.943 12.7837 239.888 15.0339C239.847 16.8687 238.489 18.2559 237.251 18.814L237.252 18.8148Z" fill="#005437"/>
<path d="M233.324 11.2981C232.612 10.7587 231.627 10.7528 230.792 11.0424C230.008 11.3142 229.284 11.8519 228.921 12.6232C228.786 12.9121 228.716 13.2952 228.929 13.5296C229.044 13.657 229.219 13.7088 229.387 13.719C230.001 13.7573 230.639 13.3342 231.201 13.5925C231.543 13.7496 231.751 14.1412 231.776 14.5294C231.801 14.9185 231.666 15.3016 231.475 15.6362C230.983 16.5001 230.087 17.1032 229.125 17.2179C228.707 17.2672 228.27 17.2256 227.894 17.0268C227.225 16.67 226.863 15.824 226.969 15.051C227.013 14.7333 227.125 14.4249 227.133 14.1047C227.14 13.7836 227.006 13.4243 226.714 13.3155C226.33 13.172 225.86 13.4973 225.608 13.7776V13.7751C225.121 14.3459 224.755 15.3406 224.643 16.247C224.531 17.1534 224.753 17.9841 225.248 18.696C225.761 19.4316 226.522 19.9599 227.348 20.2606C228.182 20.5647 229.101 20.6471 229.957 20.4178C231.277 20.0653 232.334 19.0221 233.102 17.8525C233.962 16.5443 234.544 14.9635 234.362 13.3911C234.269 12.5893 233.95 11.7746 233.323 11.299L233.324 11.2981Z" fill="#7F1416"/>
</g>
<defs>
<clipPath id="clip0_4261_1495">
<rect width="244.774" height="56" fill="white"/>
</clipPath>
</defs>
</svg>
